<?xml version="1.0" encoding="utf-8"?>
<!-- Generator: Adobe Illustrator 19.2.1, SVG Export Plug-In . SVG Version: 6.00 Build 0)  -->
<svg version="1.1" id="Layer_1" xmlns="http://www.w3.org/2000/svg" xmlns:xlink="http://www.w3.org/1999/xlink" x="0px" y="0px"
	 viewBox="0 0 200 200" style="enable-background:new 0 0 200 200;" xml:space="preserve">
<title>BA712140-E463-43AF-ADEA-DAA216A2D6CC</title>
<desc>Created with sketchtool.</desc>
<g id="Top-Nav">
	<g id="mobile_nav_small" transform="translate(-61.000000, -128.000000)">
		<g id="en-nav_x5F_header-w_x2F_cta" transform="translate(-1.000000, 117.000000)">
			<g id="mark_napster" transform="translate(62.000000, 11.000000)">
				<path id="Fill-16" d="M109.6,121.6c-2.8,2.8-6.2,4.9-9.9,6.2c-3.8-1.3-7.1-3.4-9.9-6.2H109.6z"/>
				<g id="Group-20">
					<path id="Fill-18" d="M69.4,66.4c7.4-8.5,18.3-13.9,30.3-13.9c12,0,22.8,5.3,30.3,13.9c3.2-0.9,6.5-1.4,9.9-1.5l0,14
						c5.2,3.3,8.7,9.2,8.7,16c0,6.8-3.5,12.7-8.7,16l-0.1,0.3c-2.2,20.6-19.4,36.4-40.2,36.4c-20.8,0-37.9-16.1-40.1-36.7
						c-5.2-3.4-8.7-9.3-8.7-16.1c0-6.7,3.4-12.6,8.6-16v-14C62.9,65,66.2,65.5,69.4,66.4 M81.1,71.7c5.5-3,11.8-4.6,18.5-4.6
						c6.7,0,13,1.7,18.5,4.6c1.3-0.8,2.7-1.6,4-2.3c-5.9-5.6-13.8-9.1-22.5-9.1c-8.7,0-16.6,3.5-22.6,9.1
						C78.4,70.1,79.9,70.9,81.1,71.7 M81.1,81.3c-3.9-3.4-8.6-6-13.7-7.4l0,31.4v1.3c0,18.3,14.4,33,32.3,33
						c17.9,0,32.3-14.7,32.3-33V105l0-31c-5.1,1.4-9.8,3.9-13.7,7.3c-5.3-3.8-11.7-6-18.6-6C92.7,75.2,86.3,77.5,81.1,81.3"/>
				</g>
				<path id="Fill-21" d="M109.7,106.6c5.4-0.6,14.4-0.6,14.4-0.6c-0.1,1.7,0,6.5-5.2,9.6c-0.9,0.5-3,1.2-5,1.3
					c-5,0.2-12.1,0.3-12.1,0.3C103.1,111.5,105.2,107.2,109.7,106.6"/>
				<path id="Fill-23" d="M89.6,106.6c4.5,0.5,6.6,4.8,7.8,10.6c0,0-7.1-0.1-12.1-0.3c-2-0.1-4.2-0.8-5-1.3c-5.2-3.1-5-7.9-5.2-9.6
					C75.2,106.1,84.2,106,89.6,106.6"/>
				<path id="Fill-25" d="M109.1,132.8c-2.7,1.7-6,2.7-9.5,2.7c-3.5,0-6.8-1-9.5-2.7c0,0,0.2-1.1,0.7-1.9c0.7-1,1.3-1.3,1.3-1.3
					c2.3,0.7,4.8,1.1,7.5,1.1c2.6,0,5.2-0.4,7.5-1.1c0,0,0.7,0.4,1.4,1.5C109.1,132,109.1,132.8,109.1,132.8"/>
			</g>
		</g>
	</g>
</g>
</svg>
